<mxfile host="www.draw.io" modified="2019-12-17T09:20:43.263Z" agent="Mozilla/5.0 (Macintosh; Intel Mac OS X 10_13_6) AppleWebKit/537.36 (KHTML, like Gecko) Chrome/78.0.3904.108 Safari/537.36" etag="yDV6JMZkz2teo8eh8Dz4" version="12.4.2" type="github" pages="1">
  <diagram id="tbbTadd5S9dEl3mmNvfT" name="Page-1">
    <mxGraphModel dx="946" dy="574" grid="1" gridSize="10" guides="1" tooltips="1" connect="1" arrows="1" fold="1" page="1" pageScale="1" pageWidth="827" pageHeight="1169" math="0" shadow="0">
      <root>
        <mxCell id="0"/>
        <mxCell id="1" parent="0"/>
        <mxCell id="vHIFYy6p7YVndGN5hAFh-30" value="" style="endArrow=none;html=1;" parent="1" edge="1">
          <mxGeometry width="50" height="50" relative="1" as="geometry">
            <mxPoint x="330" y="90" as="sourcePoint"/>
            <mxPoint x="1070" y="90" as="targetPoint"/>
          </mxGeometry>
        </mxCell>
        <mxCell id="vHIFYy6p7YVndGN5hAFh-35" value="" style="endArrow=none;html=1;" parent="1" edge="1">
          <mxGeometry width="50" height="50" relative="1" as="geometry">
            <mxPoint x="330" y="929" as="sourcePoint"/>
            <mxPoint x="1070" y="929" as="targetPoint"/>
            <Array as="points">
              <mxPoint x="710" y="930"/>
            </Array>
          </mxGeometry>
        </mxCell>
        <mxCell id="vHIFYy6p7YVndGN5hAFh-36" value="" style="endArrow=none;html=1;" parent="1" edge="1">
          <mxGeometry width="50" height="50" relative="1" as="geometry">
            <mxPoint x="329" y="940" as="sourcePoint"/>
            <mxPoint x="329" y="90" as="targetPoint"/>
            <Array as="points"/>
          </mxGeometry>
        </mxCell>
        <mxCell id="vHIFYy6p7YVndGN5hAFh-37" value="" style="endArrow=none;html=1;" parent="1" edge="1">
          <mxGeometry width="50" height="50" relative="1" as="geometry">
            <mxPoint x="630" y="930" as="sourcePoint"/>
            <mxPoint x="630" y="90" as="targetPoint"/>
            <Array as="points"/>
          </mxGeometry>
        </mxCell>
        <mxCell id="vHIFYy6p7YVndGN5hAFh-38" value="" style="endArrow=none;html=1;" parent="1" edge="1">
          <mxGeometry width="50" height="50" relative="1" as="geometry">
            <mxPoint x="1069" y="930" as="sourcePoint"/>
            <mxPoint x="1069" y="90" as="targetPoint"/>
            <Array as="points"/>
          </mxGeometry>
        </mxCell>
        <mxCell id="vHIFYy6p7YVndGN5hAFh-171" value="" style="edgeStyle=orthogonalEdgeStyle;rounded=0;orthogonalLoop=1;jettySize=auto;html=1;" parent="1" source="vHIFYy6p7YVndGN5hAFh-172" target="vHIFYy6p7YVndGN5hAFh-177" edge="1">
          <mxGeometry relative="1" as="geometry"/>
        </mxCell>
        <mxCell id="vHIFYy6p7YVndGN5hAFh-172" value="打开APP" style="rounded=1;whiteSpace=wrap;html=1;" parent="1" vertex="1">
          <mxGeometry x="405" y="160.00000000000003" width="70" height="30" as="geometry"/>
        </mxCell>
        <mxCell id="vHIFYy6p7YVndGN5hAFh-173" value="" style="edgeStyle=orthogonalEdgeStyle;rounded=0;orthogonalLoop=1;jettySize=auto;html=1;entryX=0.5;entryY=0;entryDx=0;entryDy=0;" parent="1" source="vHIFYy6p7YVndGN5hAFh-177" target="vHIFYy6p7YVndGN5hAFh-194" edge="1">
          <mxGeometry relative="1" as="geometry">
            <mxPoint x="440" y="500.33000000000004" as="targetPoint"/>
          </mxGeometry>
        </mxCell>
        <mxCell id="vHIFYy6p7YVndGN5hAFh-174" value="是" style="text;html=1;align=center;verticalAlign=middle;resizable=0;points=[];;labelBackgroundColor=#ffffff;" parent="vHIFYy6p7YVndGN5hAFh-173" vertex="1" connectable="0">
          <mxGeometry x="-0.05" relative="1" as="geometry">
            <mxPoint as="offset"/>
          </mxGeometry>
        </mxCell>
        <mxCell id="vHIFYy6p7YVndGN5hAFh-175" value="" style="edgeStyle=orthogonalEdgeStyle;rounded=0;orthogonalLoop=1;jettySize=auto;html=1;" parent="1" source="vHIFYy6p7YVndGN5hAFh-177" edge="1">
          <mxGeometry relative="1" as="geometry">
            <mxPoint x="524.9999999999995" y="390.33000000000004" as="targetPoint"/>
          </mxGeometry>
        </mxCell>
        <mxCell id="vHIFYy6p7YVndGN5hAFh-176" value="否" style="text;html=1;align=center;verticalAlign=middle;resizable=0;points=[];;labelBackgroundColor=#ffffff;" parent="vHIFYy6p7YVndGN5hAFh-175" vertex="1" connectable="0">
          <mxGeometry x="-0.35" y="1" relative="1" as="geometry">
            <mxPoint as="offset"/>
          </mxGeometry>
        </mxCell>
        <mxCell id="vHIFYy6p7YVndGN5hAFh-177" value="是否保存token" style="rhombus;whiteSpace=wrap;html=1;" parent="1" vertex="1">
          <mxGeometry x="395" y="360.33000000000004" width="90" height="60" as="geometry"/>
        </mxCell>
        <mxCell id="vHIFYy6p7YVndGN5hAFh-178" value="" style="edgeStyle=orthogonalEdgeStyle;rounded=0;orthogonalLoop=1;jettySize=auto;html=1;" parent="1" source="vHIFYy6p7YVndGN5hAFh-184" edge="1">
          <mxGeometry relative="1" as="geometry">
            <mxPoint x="570" y="300" as="targetPoint"/>
          </mxGeometry>
        </mxCell>
        <mxCell id="vHIFYy6p7YVndGN5hAFh-179" value="电话号码登录" style="text;html=1;align=center;verticalAlign=middle;resizable=0;points=[];;labelBackgroundColor=#ffffff;" parent="vHIFYy6p7YVndGN5hAFh-178" vertex="1" connectable="0">
          <mxGeometry x="-0.225" y="-1" relative="1" as="geometry">
            <mxPoint as="offset"/>
          </mxGeometry>
        </mxCell>
        <mxCell id="vHIFYy6p7YVndGN5hAFh-180" value="" style="edgeStyle=orthogonalEdgeStyle;rounded=0;orthogonalLoop=1;jettySize=auto;html=1;entryX=0;entryY=0.5;entryDx=0;entryDy=0;" parent="1" source="vHIFYy6p7YVndGN5hAFh-184" target="vHIFYy6p7YVndGN5hAFh-189" edge="1">
          <mxGeometry relative="1" as="geometry">
            <mxPoint x="840" y="390" as="targetPoint"/>
          </mxGeometry>
        </mxCell>
        <mxCell id="vHIFYy6p7YVndGN5hAFh-181" value="微信登录" style="text;html=1;align=center;verticalAlign=middle;resizable=0;points=[];;labelBackgroundColor=#ffffff;" parent="vHIFYy6p7YVndGN5hAFh-180" vertex="1" connectable="0">
          <mxGeometry x="-0.225" y="-1" relative="1" as="geometry">
            <mxPoint as="offset"/>
          </mxGeometry>
        </mxCell>
        <mxCell id="vHIFYy6p7YVndGN5hAFh-182" value="" style="edgeStyle=orthogonalEdgeStyle;rounded=0;orthogonalLoop=1;jettySize=auto;html=1;" parent="1" source="vHIFYy6p7YVndGN5hAFh-184" edge="1">
          <mxGeometry relative="1" as="geometry">
            <mxPoint x="569.9999999999995" y="500.33000000000004" as="targetPoint"/>
          </mxGeometry>
        </mxCell>
        <mxCell id="vHIFYy6p7YVndGN5hAFh-183" value="QQ登录" style="text;html=1;align=center;verticalAlign=middle;resizable=0;points=[];;labelBackgroundColor=#ffffff;" parent="vHIFYy6p7YVndGN5hAFh-182" vertex="1" connectable="0">
          <mxGeometry x="-0.2" y="-1" relative="1" as="geometry">
            <mxPoint as="offset"/>
          </mxGeometry>
        </mxCell>
        <mxCell id="vHIFYy6p7YVndGN5hAFh-184" value="用户登录方式" style="rhombus;whiteSpace=wrap;html=1;" parent="1" vertex="1">
          <mxGeometry x="525" y="360.33000000000004" width="90" height="60" as="geometry"/>
        </mxCell>
        <mxCell id="vHIFYy6p7YVndGN5hAFh-185" value="" style="edgeStyle=orthogonalEdgeStyle;rounded=0;orthogonalLoop=1;jettySize=auto;html=1;" parent="1" source="vHIFYy6p7YVndGN5hAFh-189" edge="1">
          <mxGeometry relative="1" as="geometry">
            <mxPoint x="891" y="500" as="targetPoint"/>
            <Array as="points">
              <mxPoint x="891" y="470"/>
              <mxPoint x="891" y="470"/>
            </Array>
          </mxGeometry>
        </mxCell>
        <mxCell id="vHIFYy6p7YVndGN5hAFh-186" value="是" style="text;html=1;align=center;verticalAlign=middle;resizable=0;points=[];;labelBackgroundColor=#ffffff;" parent="vHIFYy6p7YVndGN5hAFh-185" vertex="1" connectable="0">
          <mxGeometry x="-0.15" y="-3" relative="1" as="geometry">
            <mxPoint as="offset"/>
          </mxGeometry>
        </mxCell>
        <mxCell id="vHIFYy6p7YVndGN5hAFh-187" value="" style="edgeStyle=orthogonalEdgeStyle;rounded=0;orthogonalLoop=1;jettySize=auto;html=1;" parent="1" source="vHIFYy6p7YVndGN5hAFh-189" edge="1">
          <mxGeometry relative="1" as="geometry">
            <mxPoint x="525.3333333333335" y="389.996666666667" as="targetPoint"/>
            <Array as="points">
              <mxPoint x="805" y="240"/>
              <mxPoint x="526" y="240"/>
            </Array>
          </mxGeometry>
        </mxCell>
        <mxCell id="vHIFYy6p7YVndGN5hAFh-188" value="否" style="text;html=1;align=center;verticalAlign=middle;resizable=0;points=[];;labelBackgroundColor=#ffffff;" parent="vHIFYy6p7YVndGN5hAFh-187" vertex="1" connectable="0">
          <mxGeometry x="-0.075" y="-1" relative="1" as="geometry">
            <mxPoint x="172.85" y="71.06" as="offset"/>
          </mxGeometry>
        </mxCell>
        <mxCell id="vHIFYy6p7YVndGN5hAFh-189" value="是否有WeChatcode" style="rhombus;whiteSpace=wrap;html=1;" parent="1" vertex="1">
          <mxGeometry x="845" y="360.33000000000004" width="90" height="60" as="geometry"/>
        </mxCell>
        <mxCell id="vHIFYy6p7YVndGN5hAFh-221" value="" style="edgeStyle=orthogonalEdgeStyle;rounded=0;orthogonalLoop=1;jettySize=auto;html=1;" parent="1" source="vHIFYy6p7YVndGN5hAFh-191" target="vHIFYy6p7YVndGN5hAFh-206" edge="1">
          <mxGeometry relative="1" as="geometry"/>
        </mxCell>
        <mxCell id="vHIFYy6p7YVndGN5hAFh-191" value="微信登录" style="rounded=0;whiteSpace=wrap;html=1;" parent="1" vertex="1">
          <mxGeometry x="840" y="500.33000000000004" width="100" height="30" as="geometry"/>
        </mxCell>
        <mxCell id="vHIFYy6p7YVndGN5hAFh-192" value="" style="edgeStyle=orthogonalEdgeStyle;rounded=0;orthogonalLoop=1;jettySize=auto;html=1;entryX=0;entryY=0.5;entryDx=0;entryDy=0;" parent="1" source="vHIFYy6p7YVndGN5hAFh-194" target="vHIFYy6p7YVndGN5hAFh-199" edge="1">
          <mxGeometry relative="1" as="geometry">
            <mxPoint x="580" y="645.33" as="targetPoint"/>
          </mxGeometry>
        </mxCell>
        <mxCell id="vHIFYy6p7YVndGN5hAFh-193" value="提交" style="text;html=1;align=center;verticalAlign=middle;resizable=0;points=[];;labelBackgroundColor=#ffffff;" parent="vHIFYy6p7YVndGN5hAFh-192" vertex="1" connectable="0">
          <mxGeometry x="0.0588" relative="1" as="geometry">
            <mxPoint as="offset"/>
          </mxGeometry>
        </mxCell>
        <mxCell id="vHIFYy6p7YVndGN5hAFh-194" value="获得用户token" style="rounded=0;whiteSpace=wrap;html=1;" parent="1" vertex="1">
          <mxGeometry x="380" y="630.33" width="120" height="30" as="geometry"/>
        </mxCell>
        <mxCell id="vHIFYy6p7YVndGN5hAFh-195" value="" style="edgeStyle=orthogonalEdgeStyle;rounded=0;orthogonalLoop=1;jettySize=auto;html=1;entryX=0.5;entryY=0;entryDx=0;entryDy=0;" parent="1" source="vHIFYy6p7YVndGN5hAFh-199" target="vHIFYy6p7YVndGN5hAFh-201" edge="1">
          <mxGeometry relative="1" as="geometry">
            <mxPoint x="445" y="740.33" as="targetPoint"/>
            <Array as="points">
              <mxPoint x="720" y="700"/>
              <mxPoint x="440" y="700"/>
            </Array>
          </mxGeometry>
        </mxCell>
        <mxCell id="vHIFYy6p7YVndGN5hAFh-196" value="是" style="text;html=1;align=center;verticalAlign=middle;resizable=0;points=[];;labelBackgroundColor=#ffffff;" parent="vHIFYy6p7YVndGN5hAFh-195" vertex="1" connectable="0">
          <mxGeometry x="-0.15" y="2" relative="1" as="geometry">
            <mxPoint as="offset"/>
          </mxGeometry>
        </mxCell>
        <mxCell id="vHIFYy6p7YVndGN5hAFh-197" value="" style="edgeStyle=orthogonalEdgeStyle;rounded=0;orthogonalLoop=1;jettySize=auto;html=1;entryX=0;entryY=0.5;entryDx=0;entryDy=0;" parent="1" source="vHIFYy6p7YVndGN5hAFh-199" target="vHIFYy6p7YVndGN5hAFh-184" edge="1">
          <mxGeometry relative="1" as="geometry">
            <mxPoint x="525" y="400.33000000000004" as="targetPoint"/>
            <Array as="points">
              <mxPoint x="720" y="591"/>
              <mxPoint x="525" y="591"/>
            </Array>
          </mxGeometry>
        </mxCell>
        <mxCell id="vHIFYy6p7YVndGN5hAFh-198" value="否" style="text;html=1;align=center;verticalAlign=middle;resizable=0;points=[];;labelBackgroundColor=#ffffff;" parent="vHIFYy6p7YVndGN5hAFh-197" vertex="1" connectable="0">
          <mxGeometry x="-0.15" y="-3" relative="1" as="geometry">
            <mxPoint as="offset"/>
          </mxGeometry>
        </mxCell>
        <mxCell id="vHIFYy6p7YVndGN5hAFh-199" value="验证token正确" style="rhombus;whiteSpace=wrap;html=1;" parent="1" vertex="1">
          <mxGeometry x="660" y="605.33" width="120" height="80" as="geometry"/>
        </mxCell>
        <mxCell id="vHIFYy6p7YVndGN5hAFh-200" value="" style="edgeStyle=orthogonalEdgeStyle;rounded=0;orthogonalLoop=1;jettySize=auto;html=1;entryX=0.5;entryY=0;entryDx=0;entryDy=0;" parent="1" source="vHIFYy6p7YVndGN5hAFh-201" target="vHIFYy6p7YVndGN5hAFh-214" edge="1">
          <mxGeometry relative="1" as="geometry">
            <mxPoint x="440" y="890.33" as="targetPoint"/>
          </mxGeometry>
        </mxCell>
        <mxCell id="vHIFYy6p7YVndGN5hAFh-201" value="登录成功，获得token, user_id" style="rounded=0;whiteSpace=wrap;html=1;" parent="1" vertex="1">
          <mxGeometry x="380" y="780.33" width="120" height="30" as="geometry"/>
        </mxCell>
        <mxCell id="vHIFYy6p7YVndGN5hAFh-202" value="" style="edgeStyle=orthogonalEdgeStyle;rounded=0;orthogonalLoop=1;jettySize=auto;html=1;" parent="1" source="vHIFYy6p7YVndGN5hAFh-206" edge="1">
          <mxGeometry relative="1" as="geometry">
            <mxPoint x="711" y="240" as="targetPoint"/>
            <Array as="points">
              <mxPoint x="1000" y="591"/>
              <mxPoint x="1000" y="240"/>
            </Array>
          </mxGeometry>
        </mxCell>
        <mxCell id="vHIFYy6p7YVndGN5hAFh-203" value="否" style="text;html=1;align=center;verticalAlign=middle;resizable=0;points=[];;labelBackgroundColor=#ffffff;" parent="vHIFYy6p7YVndGN5hAFh-202" vertex="1" connectable="0">
          <mxGeometry x="0.025" relative="1" as="geometry">
            <mxPoint as="offset"/>
          </mxGeometry>
        </mxCell>
        <mxCell id="vHIFYy6p7YVndGN5hAFh-224" value="" style="edgeStyle=orthogonalEdgeStyle;rounded=0;orthogonalLoop=1;jettySize=auto;html=1;" parent="1" source="vHIFYy6p7YVndGN5hAFh-206" target="vHIFYy6p7YVndGN5hAFh-211" edge="1">
          <mxGeometry relative="1" as="geometry"/>
        </mxCell>
        <mxCell id="vHIFYy6p7YVndGN5hAFh-225" value="是" style="text;html=1;align=center;verticalAlign=middle;resizable=0;points=[];;labelBackgroundColor=#ffffff;" parent="vHIFYy6p7YVndGN5hAFh-224" vertex="1" connectable="0">
          <mxGeometry x="-0.2156" y="2" relative="1" as="geometry">
            <mxPoint as="offset"/>
          </mxGeometry>
        </mxCell>
        <mxCell id="vHIFYy6p7YVndGN5hAFh-206" value="是否返回&lt;br&gt;登录信息UID" style="rhombus;whiteSpace=wrap;html=1;" parent="1" vertex="1">
          <mxGeometry x="845" y="560.33" width="90" height="60" as="geometry"/>
        </mxCell>
        <mxCell id="vHIFYy6p7YVndGN5hAFh-207" value="" style="edgeStyle=orthogonalEdgeStyle;rounded=0;orthogonalLoop=1;jettySize=auto;html=1;" parent="1" source="vHIFYy6p7YVndGN5hAFh-211" edge="1">
          <mxGeometry relative="1" as="geometry">
            <mxPoint x="505.3333333333335" y="799.996666666667" as="targetPoint"/>
            <Array as="points">
              <mxPoint x="805" y="800.33"/>
            </Array>
          </mxGeometry>
        </mxCell>
        <mxCell id="vHIFYy6p7YVndGN5hAFh-208" value="是" style="text;html=1;align=center;verticalAlign=middle;resizable=0;points=[];;labelBackgroundColor=#ffffff;" parent="vHIFYy6p7YVndGN5hAFh-207" vertex="1" connectable="0">
          <mxGeometry x="-0.125" y="1" relative="1" as="geometry">
            <mxPoint x="129.62" y="-31" as="offset"/>
          </mxGeometry>
        </mxCell>
        <mxCell id="vHIFYy6p7YVndGN5hAFh-223" value="" style="edgeStyle=orthogonalEdgeStyle;rounded=0;orthogonalLoop=1;jettySize=auto;html=1;entryX=0.5;entryY=0;entryDx=0;entryDy=0;" parent="1" source="vHIFYy6p7YVndGN5hAFh-211" target="vHIFYy6p7YVndGN5hAFh-213" edge="1">
          <mxGeometry relative="1" as="geometry">
            <mxPoint x="1015" y="700.3299999999997" as="targetPoint"/>
          </mxGeometry>
        </mxCell>
        <mxCell id="vHIFYy6p7YVndGN5hAFh-226" value="否" style="text;html=1;align=center;verticalAlign=middle;resizable=0;points=[];;labelBackgroundColor=#ffffff;" parent="vHIFYy6p7YVndGN5hAFh-223" vertex="1" connectable="0">
          <mxGeometry x="-0.1996" y="-1" relative="1" as="geometry">
            <mxPoint as="offset"/>
          </mxGeometry>
        </mxCell>
        <mxCell id="vHIFYy6p7YVndGN5hAFh-211" value="服务器是否&lt;br&gt;保存此UID" style="rhombus;whiteSpace=wrap;html=1;" parent="1" vertex="1">
          <mxGeometry x="845" y="670.33" width="90" height="60" as="geometry"/>
        </mxCell>
        <mxCell id="vHIFYy6p7YVndGN5hAFh-212" value="" style="edgeStyle=orthogonalEdgeStyle;rounded=0;orthogonalLoop=1;jettySize=auto;html=1;" parent="1" source="vHIFYy6p7YVndGN5hAFh-213" edge="1">
          <mxGeometry relative="1" as="geometry">
            <mxPoint x="775.3333333333335" y="799.996666666667" as="targetPoint"/>
            <Array as="points">
              <mxPoint x="995" y="800.33"/>
            </Array>
          </mxGeometry>
        </mxCell>
        <mxCell id="vHIFYy6p7YVndGN5hAFh-213" value="新建用户信息" style="rounded=0;whiteSpace=wrap;html=1;" parent="1" vertex="1">
          <mxGeometry x="940" y="730.33" width="120" height="30" as="geometry"/>
        </mxCell>
        <mxCell id="vHIFYy6p7YVndGN5hAFh-214" value="获得用户其他&lt;br&gt;操作信息" style="rounded=1;whiteSpace=wrap;html=1;" parent="1" vertex="1">
          <mxGeometry x="380" y="880.33" width="120" height="30" as="geometry"/>
        </mxCell>
        <mxCell id="vHIFYy6p7YVndGN5hAFh-215" value="A" style="ellipse;whiteSpace=wrap;html=1;aspect=fixed;" parent="1" vertex="1">
          <mxGeometry x="550" y="260.33" width="40" height="40" as="geometry"/>
        </mxCell>
        <mxCell id="vHIFYy6p7YVndGN5hAFh-216" value="B" style="ellipse;whiteSpace=wrap;html=1;aspect=fixed;" parent="1" vertex="1">
          <mxGeometry x="550" y="500.33000000000004" width="40" height="40" as="geometry"/>
        </mxCell>
        <mxCell id="vHIFYy6p7YVndGN5hAFh-217" value="" style="endArrow=none;html=1;" parent="1" edge="1">
          <mxGeometry width="50" height="50" relative="1" as="geometry">
            <mxPoint x="330" y="140" as="sourcePoint"/>
            <mxPoint x="1070" y="140" as="targetPoint"/>
          </mxGeometry>
        </mxCell>
        <mxCell id="vHIFYy6p7YVndGN5hAFh-219" value="客户端" style="text;html=1;align=center;verticalAlign=middle;resizable=0;points=[];;autosize=1;" parent="1" vertex="1">
          <mxGeometry x="435" y="110" width="50" height="20" as="geometry"/>
        </mxCell>
        <mxCell id="vHIFYy6p7YVndGN5hAFh-220" value="服务端" style="text;html=1;align=center;verticalAlign=middle;resizable=0;points=[];;autosize=1;" parent="1" vertex="1">
          <mxGeometry x="825" y="110" width="50" height="20" as="geometry"/>
        </mxCell>
        <mxCell id="vHIFYy6p7YVndGN5hAFh-227" value="" style="endArrow=none;html=1;" parent="1" edge="1">
          <mxGeometry width="50" height="50" relative="1" as="geometry">
            <mxPoint x="815" y="930" as="sourcePoint"/>
            <mxPoint x="815" y="140" as="targetPoint"/>
            <Array as="points"/>
          </mxGeometry>
        </mxCell>
        <mxCell id="vHIFYy6p7YVndGN5hAFh-228" value="" style="endArrow=none;html=1;" parent="1" edge="1">
          <mxGeometry width="50" height="50" relative="1" as="geometry">
            <mxPoint x="630" y="190" as="sourcePoint"/>
            <mxPoint x="1070" y="190" as="targetPoint"/>
          </mxGeometry>
        </mxCell>
        <mxCell id="vHIFYy6p7YVndGN5hAFh-229" value="token 登录" style="text;html=1;align=center;verticalAlign=middle;resizable=0;points=[];;autosize=1;" parent="1" vertex="1">
          <mxGeometry x="685" y="160" width="70" height="20" as="geometry"/>
        </mxCell>
        <mxCell id="vHIFYy6p7YVndGN5hAFh-230" value="微信登录" style="text;html=1;align=center;verticalAlign=middle;resizable=0;points=[];;autosize=1;" parent="1" vertex="1">
          <mxGeometry x="905" y="160" width="60" height="20" as="geometry"/>
        </mxCell>
        <mxCell id="WgCjMZpx94uLrlCL35JE-1" value="Title: 登录流程图&lt;br&gt;Author：fupeng.li&lt;br&gt;Platform：draw.io" style="text;html=1;align=center;verticalAlign=middle;resizable=0;points=[];;autosize=1;" vertex="1" parent="1">
          <mxGeometry x="325" y="30" width="110" height="50" as="geometry"/>
        </mxCell>
      </root>
    </mxGraphModel>
  </diagram>
</mxfile>
